<svg width="32" height="32" viewBox="0 0 32 32" fill="none" xmlns="http://www.w3.org/2000/svg">
<path d="M25.0599 16.917V15.071H30.0001V16.917H25.0599ZM26.7194 28.846L22.7657 25.2666L23.7186 23.8045L27.6723 27.3821L26.7194 28.846ZM23.6008 8.04136L22.648 6.57931L26.6016 2.99988L27.5545 4.46377L23.6008 8.04136ZM6.05933 27V19.9704H2.00012V12.0177H10.1767L16.2364 7.68693V24.3011L10.1767 19.9704H7.5888V27H6.05933ZM14.707 21.0134V10.9747L10.6064 13.8637H3.52959V18.1243H10.6064L14.707 21.0134ZM18.9421 21.3272V10.6627C19.4539 11.235 19.8664 11.9869 20.1794 12.9186C20.4924 13.8502 20.6484 14.8753 20.6474 15.994C20.6464 17.1127 20.4904 18.1379 20.1794 19.0695C19.8684 20.0011 19.456 20.7549 18.9421 21.3272Z" fill="#00A8CC"/>
</svg>
