<svg width="32" height="32" viewBox="0 0 32 32" fill="none" xmlns="http://www.w3.org/2000/svg">
<path d="M15.7041 3H16.2959L17.0623 5.77705C17.6393 7.86609 18.8856 9.70821 20.6101 11.021C22.3345 12.3337 24.442 13.0446 26.6092 13.0447H29V13.5238L26.9497 14.939C25.2145 16.1363 23.9065 17.8562 23.2162 19.8482C22.526 21.8403 22.4893 24.0006 23.1116 26.015L24.034 29H23.4286L22.3093 28.0751C20.534 26.6081 18.303 25.8056 16 25.8056C13.697 25.8056 11.466 26.6081 9.69067 28.0751L8.57143 29H7.96476L8.88838 26.0162C9.51099 24.0017 9.47449 21.8411 8.78418 19.8488C8.09387 17.8564 6.78579 16.1364 5.05029 14.939L3 13.5238V13.0459H5.38952C7.55717 13.046 9.66501 12.3351 11.3897 11.0221C13.1145 9.70907 14.3609 7.86652 14.9377 5.77705L15.7041 3Z" stroke="#00A8CC" stroke-width="1.33333"/>
</svg>
