<svg width="146" height="27" viewBox="0 0 146 27" fill="none" xmlns="http://www.w3.org/2000/svg">
<path d="M5.24732 0L2.55712 1.55319C0.974768 2.46676 0 4.15511 0 5.98225V20.9965C0 22.8237 0.974769 24.512 2.55712 25.4256L5.24636 26.9782L18.1189 19.5456L30.9901 26.9768L33.6769 25.4256C35.2592 24.512 36.234 22.8237 36.234 20.9965V5.98225C36.234 4.15511 35.2592 2.46676 33.6768 1.55319L30.9886 0.00113419L18.1189 7.43144L5.24732 0Z" fill="#00A8CC"/>
<path d="M52.1249 20.4891V5.94368H57.4516C58.4838 5.94368 59.3384 6.11414 60.0155 6.45504C60.6926 6.79122 61.1992 7.24813 61.5354 7.82578C61.8716 8.3987 62.0396 9.04501 62.0396 9.7647C62.0396 10.3708 61.9284 10.8821 61.7058 11.2988C61.4833 11.7107 61.185 12.0422 60.8109 12.2931C60.4416 12.5393 60.0344 12.7192 59.5894 12.8329V12.9749C60.0723 12.9986 60.5434 13.1549 61.0027 13.4437C61.4667 13.7278 61.8502 14.1326 62.1533 14.6582C62.4563 15.1837 62.6078 15.8229 62.6078 16.5758C62.6078 17.3192 62.4326 17.9868 62.0823 18.5786C61.7366 19.1657 61.2016 19.6321 60.4771 19.9778C59.7527 20.3187 58.827 20.4891 57.7002 20.4891H52.1249ZM54.3195 18.607H57.4871C58.5382 18.607 59.2911 18.4034 59.7456 17.9962C60.2002 17.589 60.4274 17.08 60.4274 16.4692C60.4274 16.01 60.3114 15.5886 60.0794 15.205C59.8474 14.8215 59.516 14.5161 59.0851 14.2889C58.659 14.0616 58.1523 13.9479 57.5652 13.9479H54.3195V18.607ZM54.3195 12.2363H57.2598C57.7522 12.2363 58.1949 12.1416 58.5879 11.9522C58.9857 11.7628 59.3005 11.4977 59.5325 11.1567C59.7693 10.8111 59.8877 10.4039 59.8877 9.93516C59.8877 9.33383 59.677 8.82957 59.2555 8.42237C58.8341 8.01518 58.1878 7.81158 57.3166 7.81158H54.3195V12.2363ZM69.7421 20.7093C68.6672 20.7093 67.7416 20.4797 66.9651 20.0204C66.1933 19.5564 65.5967 18.9053 65.1753 18.0673C64.7586 17.2245 64.5503 16.2372 64.5503 15.1056C64.5503 13.9882 64.7586 13.0033 65.1753 12.1511C65.5967 11.2988 66.1838 10.6335 66.9367 10.1553C67.6942 9.67711 68.5796 9.438 69.5929 9.438C70.2084 9.438 70.805 9.5398 71.3827 9.7434C71.9603 9.947 72.4788 10.2666 72.9381 10.7022C73.3974 11.1378 73.7596 11.7036 74.0247 12.3996C74.2899 13.0909 74.4225 13.9314 74.4225 14.921V15.6738H65.7506V14.0829H72.3415C72.3415 13.5242 72.2279 13.0294 72.0006 12.5985C71.7733 12.1629 71.4537 11.8196 71.0418 11.5687C70.6346 11.3177 70.1564 11.1923 69.6071 11.1923C69.0105 11.1923 68.4897 11.339 68.0446 11.6326C67.6043 11.9214 67.2634 12.3002 67.0219 12.769C66.7851 13.233 66.6668 13.7372 66.6668 14.2817V15.5246C66.6668 16.2538 66.7946 16.8741 67.0503 17.3854C67.3107 17.8968 67.6729 18.2874 68.1369 18.5573C68.601 18.8225 69.1431 18.955 69.7634 18.955C70.1658 18.955 70.5328 18.8982 70.8642 18.7846C71.1957 18.6662 71.4821 18.491 71.7236 18.259C71.9651 18.027 72.1497 17.7406 72.2776 17.3996L74.2875 17.7619C74.1265 18.3537 73.8377 18.8722 73.421 19.3173C73.0091 19.7576 72.4906 20.1009 71.8656 20.3471C71.2454 20.5886 70.5375 20.7093 69.7421 20.7093ZM85.1948 5.51754L86.0755 6.85987C85.7488 7.15817 85.3771 7.37124 84.9604 7.49908C84.5485 7.62218 84.0727 7.70031 83.5329 7.73345C82.9931 7.76186 82.3752 7.7879 81.6792 7.81158C80.8932 7.83525 80.2469 8.00571 79.7403 8.32294C79.2337 8.63544 78.843 9.09946 78.5684 9.71499C78.2985 10.3258 78.1233 11.0928 78.0428 12.0161H78.1778C78.5329 11.339 79.0253 10.8324 79.6551 10.4962C80.2895 10.1601 81.0021 9.99198 81.7928 9.99198C82.6735 9.99198 83.4571 10.1932 84.1437 10.5957C84.8302 10.9981 85.37 11.5876 85.763 12.3641C86.1607 13.1359 86.3596 14.0805 86.3596 15.1979C86.3596 16.3296 86.1513 17.3073 85.7346 18.1312C85.3227 18.955 84.7403 19.5919 83.9874 20.0417C83.2393 20.4868 82.3563 20.7093 81.3383 20.7093C80.3203 20.7093 79.4325 20.4797 78.6749 20.0204C77.9221 19.5564 77.3373 18.8698 76.9207 17.9607C76.5087 17.0516 76.3028 15.9295 76.3028 14.5942V13.5147C76.3028 11.0194 76.7479 9.14207 77.638 7.8826C78.5282 6.62313 79.8587 5.97682 81.6295 5.94368C82.2024 5.92948 82.7138 5.92711 83.1636 5.93658C83.6134 5.94131 84.0064 5.92001 84.3426 5.87266C84.6835 5.82057 84.9676 5.7022 85.1948 5.51754ZM81.3454 18.9266C81.9372 18.9266 82.4462 18.7775 82.8724 18.4792C83.3033 18.1762 83.6347 17.7477 83.8667 17.1937C84.0987 16.6397 84.2147 15.9863 84.2147 15.2335C84.2147 14.4948 84.0987 13.8675 83.8667 13.3514C83.6347 12.8353 83.3033 12.4423 82.8724 12.1724C82.4415 11.8978 81.9254 11.7604 81.3241 11.7604C80.879 11.7604 80.4813 11.8386 80.1309 11.9948C79.7805 12.1463 79.4799 12.3712 79.2289 12.6695C78.9827 12.9678 78.7909 13.3324 78.6536 13.7633C78.5211 14.1894 78.45 14.6795 78.4406 15.2335C78.4406 16.3603 78.6986 17.2576 79.2147 17.9252C79.7355 18.5928 80.4458 18.9266 81.3454 18.9266ZM97.5315 20.4891L92.6451 13.9692H91.0968V20.4891H88.9022V5.94368H91.0968V12.0871H91.8141L97.3113 5.94368H99.9889L94.1721 12.4565L100.209 20.4891H97.5315ZM102.613 24.58C102.296 24.58 102.007 24.554 101.747 24.5019C101.486 24.4546 101.292 24.4025 101.164 24.3457L101.676 22.6056C102.064 22.7098 102.41 22.7548 102.713 22.7406C103.016 22.7264 103.283 22.6127 103.515 22.3996C103.752 22.1866 103.96 21.8386 104.14 21.3556L104.403 20.6312L100.411 9.58004H102.684L105.447 18.046H105.561L108.323 9.58004H110.603L106.107 21.9451C105.899 22.5133 105.634 22.9939 105.312 23.3869C104.99 23.7846 104.607 24.0829 104.161 24.2817C103.716 24.4806 103.2 24.58 102.613 24.58ZM114.275 9.58004L116.683 13.8272L119.112 9.58004H121.434L118.032 15.0346L121.463 20.4891H119.14L116.683 16.4124L114.232 20.4891H111.903L115.298 15.0346L111.946 9.58004H114.275ZM131.008 14.1184V15.9579H125.099V14.1184H131.008ZM125.696 9.58004V20.4891H123.615V9.58004H125.696ZM132.492 9.58004V20.4891H130.419V9.58004H132.492ZM141.839 20.4891V11.3911H139.225C138.605 11.3911 138.122 11.5355 137.777 11.8244C137.431 12.1132 137.258 12.492 137.258 12.9607C137.258 13.4247 137.417 13.7988 137.734 14.0829C138.056 14.3622 138.506 14.5019 139.083 14.5019H142.457V16.2207H139.083C138.278 16.2207 137.582 16.0881 136.995 15.8229C136.413 15.5531 135.963 15.1719 135.646 14.6795C135.333 14.1871 135.177 13.6047 135.177 12.9323C135.177 12.2458 135.338 11.6539 135.66 11.1567C135.987 10.6549 136.453 10.2666 137.059 9.99198C137.67 9.71735 138.392 9.58004 139.225 9.58004H143.835V20.4891H141.839ZM134.68 20.4891L137.755 14.9778H139.928L136.853 20.4891H134.68Z" fill="black"/>
</svg>
